<svg width="38" height="38" viewBox="0 0 38 38" fill="none" xmlns="http://www.w3.org/2000/svg">
<path d="M6.25 29.6875V26.5625H9.375V15.625C9.375 13.4635 10.026 11.5432 11.3281 9.86407C12.6302 8.1849 14.3229 7.08438 16.4062 6.5625V5.46875C16.4062 4.81771 16.6344 4.26459 17.0906 3.80938C17.5469 3.35417 18.1 3.12605 18.75 3.125C19.4 3.12396 19.9536 3.35209 20.4109 3.80938C20.8682 4.26667 21.0958 4.8198 21.0937 5.46875V6.5625C23.1771 7.08334 24.8698 8.18386 26.1719 9.86407C27.474 11.5443 28.125 13.4646 28.125 15.625V26.5625H31.25V29.6875H6.25ZM18.75 34.375C17.8906 34.375 17.1552 34.0693 16.5437 33.4578C15.9323 32.8464 15.626 32.1104 15.625 31.25H21.875C21.875 32.1094 21.5693 32.8453 20.9578 33.4578C20.3464 34.0703 19.6104 34.376 18.75 34.375ZM12.5 26.5625H25V15.625C25 13.9063 24.388 12.4349 23.1641 11.2109C21.9401 9.98698 20.4687 9.375 18.75 9.375C17.0312 9.375 15.5599 9.98698 14.3359 11.2109C13.112 12.4349 12.5 13.9063 12.5 15.625V26.5625Z" fill="#F5F7F8"/>
</svg>
