<svg width="38" height="38" viewBox="0 0 38 38" fill="none" xmlns="http://www.w3.org/2000/svg">
<path fill-rule="evenodd" clip-rule="evenodd" d="M25 14.0625C25 15.7201 24.3415 17.3098 23.1694 18.4819C21.9973 19.654 20.4076 20.3125 18.75 20.3125C17.0924 20.3125 15.5027 19.654 14.3306 18.4819C13.1585 17.3098 12.5 15.7201 12.5 14.0625C12.5 12.4049 13.1585 10.8152 14.3306 9.64308C15.5027 8.47098 17.0924 7.8125 18.75 7.8125C20.4076 7.8125 21.9973 8.47098 23.1694 9.64308C24.3415 10.8152 25 12.4049 25 14.0625ZM21.875 14.0625C21.875 14.8913 21.5458 15.6862 20.9597 16.2722C20.3737 16.8583 19.5788 17.1875 18.75 17.1875C17.9212 17.1875 17.1263 16.8583 16.5403 16.2722C15.9542 15.6862 15.625 14.8913 15.625 14.0625C15.625 13.2337 15.9542 12.4388 16.5403 11.8528C17.1263 11.2667 17.9212 10.9375 18.75 10.9375C19.5788 10.9375 20.3737 11.2667 20.9597 11.8528C21.5458 12.4388 21.875 13.2337 21.875 14.0625Z" fill="#F5F7F8"/>
<path fill-rule="evenodd" clip-rule="evenodd" d="M18.75 1.5625C9.25781 1.5625 1.5625 9.25781 1.5625 18.75C1.5625 28.2422 9.25781 35.9375 18.75 35.9375C28.2422 35.9375 35.9375 28.2422 35.9375 18.75C35.9375 9.25781 28.2422 1.5625 18.75 1.5625ZM4.6875 18.75C4.6875 22.0156 5.80156 25.0219 7.66875 27.4094C8.98038 25.6877 10.6721 24.2924 12.6119 23.3324C14.5518 22.3724 16.6872 21.8736 18.8516 21.875C20.9881 21.8725 23.097 22.358 25.0174 23.2943C26.9378 24.2307 28.619 25.5933 29.9328 27.2781C31.2866 25.5025 32.1982 23.43 32.592 21.2322C32.9859 19.0343 32.8507 16.7743 32.1977 14.639C31.5446 12.5038 30.3925 10.5548 28.8367 8.95318C27.2809 7.3516 25.366 6.14353 23.2506 5.42892C21.1352 4.71431 18.88 4.51371 16.6717 4.84371C14.4633 5.17371 12.3653 6.02483 10.5512 7.32665C8.7371 8.62846 7.25908 10.3435 6.23942 12.33C5.21976 14.3164 4.68778 16.5171 4.6875 18.75ZM18.75 32.8125C15.5217 32.8177 12.3909 31.7071 9.8875 29.6688C10.895 28.226 12.2362 27.048 13.797 26.2351C15.3577 25.4222 17.0918 24.9985 18.8516 25C20.5893 24.9985 22.3024 25.4116 23.8484 26.2052C25.3944 26.9987 26.7288 28.1497 27.7406 29.5625C25.2179 31.6672 22.0354 32.8176 18.75 32.8125Z" fill="#F5F7F8"/>
</svg>
