<svg width="38" height="38" viewBox="0 0 38 38" fill="none" xmlns="http://www.w3.org/2000/svg">
<path d="M18.75 4.6875C10.1562 4.6875 3.125 10.2812 3.125 17.1875C3.16445 18.8479 3.57004 20.4791 4.31281 21.9647C5.05558 23.4502 6.11721 24.7534 7.42187 25.7812C7.42187 26.7188 6.76562 29.1719 3.125 32.8125C6.82812 32.6406 10.375 31.25 13.2344 28.9062C15.0156 29.4219 16.8906 29.6875 18.75 29.6875C27.3437 29.6875 34.375 24.0938 34.375 17.1875C34.375 10.2812 27.3437 4.6875 18.75 4.6875ZM18.75 26.5625C11.8437 26.5625 6.25 22.3594 6.25 17.1875C6.25 12.0156 11.8437 7.8125 18.75 7.8125C25.6562 7.8125 31.25 12.0156 31.25 17.1875C31.25 22.3594 25.6562 26.5625 18.75 26.5625Z" fill="#F5F7F8"/>
</svg>
